<svg width="16" height="17" viewBox="0 0 16 17" fill="none" xmlns="http://www.w3.org/2000/svg">
<g clip-path="url(#clip0_1_256)">
<path d="M15.7811 8.18673L11.0198 3.4254C10.7293 3.13489 10.2582 3.13489 9.96766 3.4254C9.6771 3.71596 9.6771 4.18697 9.96766 4.47753L13.459 7.96884H0.742982C0.332139 7.96884 -0.000976562 8.30196 -0.000976562 8.7128C-0.000976562 9.12359 0.332139 9.45676 0.742982 9.45676H13.459L9.96778 12.9481C9.67722 13.2386 9.67722 13.7096 9.96778 14.0002C10.113 14.1454 10.3035 14.2181 10.4938 14.2181C10.6842 14.2181 10.8746 14.1454 11.0199 14.0002L15.7811 9.23887C16.0717 8.94831 16.0717 8.47729 15.7811 8.18673Z" fill="white"/>
</g>
<defs>
<clipPath id="clip0_1_256">
<rect width="16" height="16" fill="white" transform="translate(-0.000976562 0.712891)"/>
</clipPath>
</defs>
</svg>
