<svg width="20" height="21" viewBox="0 0 20 21" fill="none" xmlns="http://www.w3.org/2000/svg">
<g clip-path="url(#clip0_1_271)">
<path d="M9.99994 20.1717C15.5227 20.1717 19.9998 15.6946 19.9998 10.1718C19.9998 4.64899 15.5227 0.171875 9.99994 0.171875C4.47714 0.171875 3.05176e-05 4.64899 3.05176e-05 10.1718C3.05176e-05 15.6946 4.47714 20.1717 9.99994 20.1717Z" fill="white"/>
<path d="M16.1244 7.35868C15.6959 7.5487 15.2349 7.67723 14.7515 7.73462C15.2451 7.43889 15.6239 6.97097 15.8027 6.41249C15.3408 6.68647 14.829 6.88523 14.2848 6.99236C13.8488 6.528 13.2276 6.23779 12.5397 6.23779C11.2198 6.23779 10.1494 7.30823 10.1494 8.62805C10.1494 8.8154 10.1706 8.99776 10.2116 9.17281C8.22511 9.07316 6.46374 8.12162 5.28474 6.67506C5.07903 7.02801 4.96103 7.43889 4.96103 7.87687C4.96103 8.70595 5.38332 9.43788 6.02433 9.86641C5.6327 9.85411 5.26389 9.74662 4.94177 9.56712C4.9416 9.57728 4.94159 9.58744 4.94159 9.59742C4.94159 10.7556 5.76586 11.7215 6.85912 11.941C6.65875 11.9959 6.44716 12.0249 6.22951 12.0249C6.07514 12.0249 5.92558 12.0101 5.77976 11.9823C6.08387 12.9317 6.96643 13.6228 8.01262 13.6423C7.19442 14.2835 6.16391 14.6655 5.04374 14.6655C4.85122 14.6655 4.66048 14.6542 4.47385 14.632C5.53109 15.3104 6.78781 15.706 8.13758 15.706C12.5341 15.706 14.9385 12.0638 14.9385 8.90489C14.9385 8.80132 14.9362 8.69811 14.9315 8.59579C15.3989 8.25888 15.8041 7.83801 16.1244 7.35868Z" fill="#305F64"/>
</g>
<defs>
<clipPath id="clip0_1_271">
<rect width="20" height="20" fill="white" transform="translate(-0.000976562 0.171875)"/>
</clipPath>
</defs>
</svg>
