<svg width="67" height="53" viewBox="0 0 67 53" fill="none" xmlns="http://www.w3.org/2000/svg">
<g clip-path="url(#clip0_1_359)">
<path d="M12.1881 52.1634V48.7139C12.1881 47.3916 11.3832 46.5293 10.0034 46.5293C9.31355 46.5293 8.56617 46.7592 8.04875 47.5066C7.64631 46.8742 7.0714 46.5293 6.20903 46.5293C5.63412 46.5293 5.05921 46.7017 4.59928 47.3341V46.6442H3.39197V52.1634H4.59928V49.1164C4.59928 48.139 5.1167 47.6791 5.92157 47.6791C6.72645 47.6791 7.12889 48.1965 7.12889 49.1164V52.1634H8.33621V49.1164C8.33621 48.139 8.91111 47.6791 9.6585 47.6791C10.4634 47.6791 10.8658 48.1965 10.8658 49.1164V52.1634H12.1881V52.1634ZM30.0678 46.6442H28.1132V44.977H26.9058V46.6442H25.8135V47.7366H26.9058V50.2662C26.9058 51.531 27.4232 52.2784 28.803 52.2784C29.3205 52.2784 29.8954 52.1059 30.2978 51.8759L29.9529 50.8411C29.6079 51.0711 29.2055 51.1285 28.918 51.1285C28.3431 51.1285 28.1132 50.7836 28.1132 50.2087V47.7366H30.0678V46.6442V46.6442ZM40.3013 46.5293C39.6114 46.5293 39.1514 46.8742 38.864 47.3341V46.6442H37.6567V52.1634H38.864V49.0589C38.864 48.139 39.2664 47.6216 40.0138 47.6216C40.2438 47.6216 40.5312 47.6791 40.7612 47.7366L41.1061 46.5868C40.8762 46.5293 40.5312 46.5293 40.3013 46.5293V46.5293ZM24.8361 47.1042C24.2612 46.7017 23.4564 46.5293 22.594 46.5293C21.2142 46.5293 20.2944 47.2192 20.2944 48.3115C20.2944 49.2313 20.9842 49.7488 22.1916 49.9212L22.7665 49.9787C23.3989 50.0937 23.7438 50.2662 23.7438 50.5536C23.7438 50.9561 23.2839 51.2435 22.479 51.2435C21.6741 51.2435 21.0417 50.9561 20.6393 50.6686L20.0644 51.5885C20.6968 52.0484 21.5592 52.2784 22.4215 52.2784C24.0313 52.2784 24.9511 51.531 24.9511 50.4962C24.9511 49.5188 24.2037 49.0014 23.0539 48.8289L22.479 48.7714C21.9616 48.7139 21.5592 48.5989 21.5592 48.254C21.5592 47.8516 21.9616 47.6216 22.594 47.6216C23.2839 47.6216 23.9738 47.9091 24.3187 48.0815L24.8361 47.1042V47.1042ZM56.9162 46.5293C56.2263 46.5293 55.7664 46.8742 55.4789 47.3341V46.6442H54.2716V52.1634H55.4789V49.0589C55.4789 48.139 55.8814 47.6216 56.6288 47.6216C56.8587 47.6216 57.1462 47.6791 57.3761 47.7366L57.7211 46.5868C57.4911 46.5293 57.1462 46.5293 56.9162 46.5293V46.5293ZM41.5086 49.4038C41.5086 51.0711 42.6584 52.2784 44.4406 52.2784C45.2455 52.2784 45.8204 52.1059 46.3953 51.646L45.8204 50.6686C45.3605 51.0136 44.9006 51.186 44.3831 51.186C43.4058 51.186 42.7159 50.4961 42.7159 49.4038C42.7159 48.369 43.4058 47.6791 44.3831 47.6216C44.9006 47.6216 45.3605 47.7941 45.8204 48.139L46.3953 47.1617C45.8204 46.7017 45.2455 46.5293 44.4406 46.5293C42.6584 46.5293 41.5086 47.7366 41.5086 49.4038V49.4038ZM52.6619 49.4038V46.6442H51.4546V47.3341C51.0521 46.8167 50.4772 46.5293 49.7298 46.5293C48.1776 46.5293 46.9702 47.7366 46.9702 49.4038C46.9702 51.0711 48.1776 52.2784 49.7298 52.2784C50.5347 52.2784 51.1096 51.9909 51.4546 51.4735V52.1634H52.6619V49.4038ZM48.235 49.4038C48.235 48.4265 48.8674 47.6216 49.9023 47.6216C50.8796 47.6216 51.5695 48.369 51.5695 49.4038C51.5695 50.3812 50.8796 51.186 49.9023 51.186C48.8674 51.1286 48.235 50.3812 48.235 49.4038ZM33.8048 46.5293C32.195 46.5293 31.0452 47.6791 31.0452 49.4038C31.0452 51.1285 32.195 52.2784 33.8623 52.2784C34.6671 52.2784 35.472 52.0484 36.1044 51.531L35.5295 50.6686C35.0696 51.0136 34.4947 51.2435 33.9198 51.2435C33.1724 51.2435 32.425 50.8986 32.2525 49.9212H36.3344C36.3344 49.7488 36.3344 49.6338 36.3344 49.4613C36.3919 47.6791 35.357 46.5293 33.8048 46.5293V46.5293ZM33.8048 47.5641C34.5522 47.5641 35.0696 48.024 35.1846 48.8864H32.31C32.425 48.139 32.9424 47.5641 33.8048 47.5641ZM63.7576 49.4038V44.4596H62.5503V47.3341C62.1479 46.8167 61.573 46.5293 60.8256 46.5293C59.2733 46.5293 58.066 47.7366 58.066 49.4038C58.066 51.0711 59.2733 52.2784 60.8256 52.2784C61.6305 52.2784 62.2054 51.9909 62.5503 51.4735V52.1634H63.7576V49.4038ZM59.3308 49.4038C59.3308 48.4265 59.9632 47.6216 60.9981 47.6216C61.9754 47.6216 62.6653 48.369 62.6653 49.4038C62.6653 50.3812 61.9754 51.186 60.9981 51.186C59.9632 51.1286 59.3308 50.3812 59.3308 49.4038ZM18.9721 49.4038V46.6442H17.7647V47.3341C17.3623 46.8167 16.7874 46.5293 16.04 46.5293C14.4878 46.5293 13.2804 47.7366 13.2804 49.4038C13.2804 51.0711 14.4878 52.2784 16.04 52.2784C16.8449 52.2784 17.4198 51.9909 17.7647 51.4735V52.1634H18.9721V49.4038ZM14.4877 49.4038C14.4877 48.4265 15.1201 47.6216 16.155 47.6216C17.1323 47.6216 17.8222 48.369 17.8222 49.4038C17.8222 50.3812 17.1323 51.186 16.155 51.186C15.1201 51.1286 14.4877 50.3812 14.4877 49.4038Z" fill="black"/>
<path d="M42.5421 4.73291H24.4324V37.2729H42.5421V4.73291Z" fill="#FF5F00"/>
<path d="M25.5836 21.003C25.5836 14.3915 28.6881 8.52739 33.4598 4.73298C29.9529 1.9734 25.5261 0.306152 20.6968 0.306152C9.25607 0.306152 0 9.56223 0 21.003C0 32.4437 9.25607 41.6998 20.6968 41.6998C25.5261 41.6998 29.9529 40.0325 33.4598 37.273C28.6881 33.536 25.5836 27.6144 25.5836 21.003Z" fill="#EB001B"/>
<path d="M66.9778 21.003C66.9778 32.4437 57.7217 41.6998 46.281 41.6998C41.4518 41.6998 37.0249 40.0325 33.518 37.273C38.3472 33.4785 41.3943 27.6144 41.3943 21.003C41.3943 14.3915 38.2897 8.52739 33.518 4.73298C37.0249 1.9734 41.4518 0.306152 46.281 0.306152C57.7217 0.306152 66.9778 9.61972 66.9778 21.003Z" fill="#F79E1B"/>
</g>
<defs>
<clipPath id="clip0_1_359">
<rect width="66.9772" height="51.972" fill="white" transform="translate(0 0.306152)"/>
</clipPath>
</defs>
</svg>
